<?xml version="1.0" standalone="no"?>
<!DOCTYPE svg PUBLIC "-//W3C//DTD SVG 20010904//EN"
 "http://www.w3.org/TR/2001/REC-SVG-20010904/DTD/svg10.dtd">
<svg version="1.0" xmlns="http://www.w3.org/2000/svg"
 width="32.000000pt" height="33.000000pt" viewBox="0 0 32.000000 33.000000"
 preserveAspectRatio="xMidYMid meet">
<metadata>
Created by potrace 1.11, written by Peter Selinger 2001-2013
</metadata>
<g transform="translate(0.000000,33.000000) scale(0.100000,-0.100000)"
fill="#000000" stroke="none">
<path d="M140 306 c0 -35 -18 -42 -44 -17 -27 26 -52 11 -35 -21 15 -28 6 -42
-26 -43 -37 0 -43 -22 -11 -36 33 -15 33 -33 0 -48 -32 -14 -26 -36 11 -36 32
-1 41 -15 26 -43 -17 -32 8 -47 35 -21 26 25 44 18 44 -17 0 -17 5 -24 20 -24
15 0 20 7 20 24 0 35 18 42 44 17 27 -26 52 -11 35 21 -15 28 -6 42 26 43 37
0 43 22 11 36 -14 7 -26 18 -26 24 0 6 12 17 26 24 32 14 26 36 -11 36 -32 1
-41 15 -26 43 17 32 -8 47 -35 21 -26 -25 -44 -18 -44 17 0 17 -5 24 -20 24
-15 0 -20 -7 -20 -24z m73 -98 c22 -26 22 -60 -1 -89 -26 -31 -78 -31 -104 0
-59 74 43 161 105 89z"/>
</g>
</svg>
